<svg xmlns="http://www.w3.org/2000/svg" viewBox="0 0 512 512" role="img" aria-label="Liftbook">
  <defs>
    <linearGradient id="bg" x1="0" y1="0" x2="1" y2="1">
      <stop offset="0%" stop-color="#ecfeff" />
      <stop offset="100%" stop-color="#dcfce7" />
    </linearGradient>
    <linearGradient id="cover" x1="0" y1="0" x2="0" y2="1">
      <stop offset="0%" stop-color="#134e4a" />
      <stop offset="100%" stop-color="#115e59" />
    </linearGradient>
  </defs>

  <rect width="512" height="512" rx="104" fill="url(#bg)" />

  <path d="M120 148c0-22 18-40 40-40h88c36 0 62 9 86 29 24-20 50-29 86-29h12c22 0 40 18 40 40v208c0 22-18 40-40 40h-16c-29 0-54 7-82 24l-20 12-20-12c-28-17-53-24-82-24H160c-22 0-40-18-40-40V148Z" fill="url(#cover)" />
  <path d="M152 156c0-14 12-26 26-26h64c36 0 59 11 82 35 23-24 46-35 82-35h24c14 0 26 12 26 26v184c0 14-12 26-26 26h-24c-28 0-52 8-74 24l-8 6-8-6c-22-16-46-24-74-24h-64c-14 0-26-12-26-26V156Z" fill="#fffdf7" />
  <path d="M256 154v218" stroke="#d4d4d8" stroke-width="10" stroke-linecap="round" />
  <path d="M180 188h48c30 0 50 8 72 28M332 188h-48c-30 0-50 8-72 28" stroke="#0f766e" stroke-width="10" stroke-linecap="round" stroke-linejoin="round" fill="none" />
  <path d="M192 246h40M192 282h48M280 246h40M272 282h56" stroke="#99f6e4" stroke-width="10" stroke-linecap="round" opacity=".75" />

  <g transform="translate(256 318)">
    <rect x="-54" y="-10" width="108" height="20" rx="10" fill="#0f172a" />
    <rect x="-88" y="-24" width="18" height="48" rx="8" fill="#14b8a6" />
    <rect x="-68" y="-34" width="12" height="68" rx="6" fill="#0f766e" />
    <rect x="70" y="-24" width="18" height="48" rx="8" fill="#14b8a6" />
    <rect x="56" y="-34" width="12" height="68" rx="6" fill="#0f766e" />
  </g>
</svg>
